<?xml version="1.0" encoding="iso-8859-1"?>
<!-- Generator: Adobe Illustrator 21.0.0, SVG Export Plug-In . SVG Version: 6.00 Build 0)  -->
<svg version="1.1" id="Capa_1" xmlns="http://www.w3.org/2000/svg" xmlns:xlink="http://www.w3.org/1999/xlink" x="0px" y="0px"
	 viewBox="0 0 512 512" style="enable-background:new 0 0 512 512;" xml:space="preserve">
<path style="fill:#FFE373;" d="M298.484,105.703c16.386,30.331,25.472,60.282,28.742,89.117l50,163.43l77.499,30H484.5
	L298.484,105.703z"/>
<path style="fill:#FFEFB0;" d="M256,388.25h198.725L327.226,194.82C335.991,272.106,302.897,341.353,256,388.25z"/>
<rect x="372.741" y="3.966" transform="matrix(0.8349 -0.5503 0.5503 0.8349 -63.6609 247.1738)" style="fill:#C0E4FC;" width="14.999" height="451.505"/>
<path style="fill:#43AAF0;" d="M398.665,438.25l-91.671,70h30c49.066,0,92.604-23.576,119.969-60L398.665,438.25z"/>
<polygon style="fill:#C0E4FC;" points="7.5,418.25 7.5,508.25 145.007,508.25 "/>
<path style="fill:#FFEFB0;" d="M256,41.25c-10.302,5.973-20.305,12.402-30,19.241L196,224.37l30,163.879h30V41.25z"/>
<path style="fill:#FFF5CE;" d="M56,388.25h170V60.491C123.208,133.005,56,252.725,56,388.25z"/>
<path style="fill:#43AAF0;" d="M256,3.75c-4.142,0-7.5,3.358-7.5,7.5v427h15v-427C263.5,7.108,260.143,3.75,256,3.75z"/>
<path style="fill:#C0E4FC;" d="M474.5,418.25h-30l-45.835,30h58.298C463.901,439.014,469.818,428.966,474.5,418.25z"/>
<path style="fill:#D4F4FB;" d="M444.5,418.25H7.5c4.682,10.716,10.599,20.764,17.538,30l230.962,30l170.962-30
	C433.901,439.014,439.818,428.966,444.5,418.25z"/>
<g>
	<path style="fill:#81C6F6;" d="M25.038,448.25c27.365,36.424,70.903,60,119.969,60h161.987c49.066,0,92.604-23.576,119.969-60
		H25.038z"/>
	<path style="fill:#81C6F6;" d="M484.5,395.75H7.5c-4.142,0-7.5-3.358-7.5-7.5s3.358-7.5,7.5-7.5h477c4.143,0,7.5,3.358,7.5,7.5
		S488.643,395.75,484.5,395.75z"/>
</g>
<path style="fill:#C0E4FC;" d="M504.5,425.75H7.5c-4.142,0-7.5-3.358-7.5-7.5s3.358-7.5,7.5-7.5h497c4.143,0,7.5,3.358,7.5,7.5
	S508.643,425.75,504.5,425.75z"/>
<g>
</g>
<g>
</g>
<g>
</g>
<g>
</g>
<g>
</g>
<g>
</g>
<g>
</g>
<g>
</g>
<g>
</g>
<g>
</g>
<g>
</g>
<g>
</g>
<g>
</g>
<g>
</g>
<g>
</g>
</svg>
